<svg width="96" height="96" viewBox="0 0 96 96" fill="none" xmlns="http://www.w3.org/2000/svg">
<path fill-rule="evenodd" clip-rule="evenodd" d="M73.9329 10.0429C77.8147 9.60627 81.4172 12.5565 81.8443 16.5223L84.9829 45.6465C85.3202 48.7766 80.5689 49.311 80.2316 46.1809L77.0931 17.0567C76.9507 15.7347 75.75 14.7514 74.456 14.8969L23.7759 20.5973C22.482 20.7428 21.5194 21.9696 21.6618 23.2915L22.263 28.8698C22.6003 31.9999 17.8491 32.5344 17.5117 29.4043L16.9106 23.8259C16.4833 19.8601 19.371 16.1799 23.2528 15.7432L73.9329 10.0429Z" fill="#364F5A"/>
<path fill-rule="evenodd" clip-rule="evenodd" d="M10 42.778C10 38.7988 13.1366 35.5385 17.0474 35.5385H68.279C72.1895 35.5385 75.3262 38.7988 75.3262 42.778V78.7606C75.3262 82.7397 72.1895 86 68.279 86H17.0474C13.1366 86 10 82.7397 10 78.7606V42.778ZM14.78 72.8063V78.7606C14.78 80.0809 15.8138 81.1166 17.0474 81.1166H68.279C69.5123 81.1166 70.5463 80.0809 70.5463 78.7606V72.8063H14.78ZM70.5463 67.923H14.78V42.778C14.78 41.4576 15.8137 40.4219 17.0474 40.4219H68.279C69.5123 40.4219 70.5463 41.4576 70.5463 42.778V67.923Z" fill="#364F5A"/>
<path fill-rule="evenodd" clip-rule="evenodd" d="M22.7464 51.0026C22.7464 49.6541 23.8164 48.5609 25.1364 48.5609H31.5097C32.8296 48.5609 33.8996 49.6541 33.8996 51.0026C33.8996 52.3511 32.8296 53.4442 31.5097 53.4442H25.1364C23.8164 53.4442 22.7464 52.3511 22.7464 51.0026Z" fill="#364F5A"/>
<path fill-rule="evenodd" clip-rule="evenodd" d="M42.3302 29.155C42.4747 30.4954 41.5282 31.7016 40.2162 31.8492L33.0892 32.6508C31.7772 32.7983 30.5965 31.8314 30.4521 30.491C30.3076 29.1506 31.2541 27.9443 32.5662 27.7967L39.6931 26.9952C41.0051 26.8476 42.1858 27.8146 42.3302 29.155Z" fill="#364F5A"/>
</svg>
