<svg width="54" height="54" viewBox="0 0 54 54" fill="none" xmlns="http://www.w3.org/2000/svg">
<path fill-rule="evenodd" clip-rule="evenodd" d="M9.2439 10.9C8.89367 10.9 8.60976 11.191 8.60976 11.55V34.95C8.60976 35.309 8.89366 35.6 9.2439 35.6H44.7561C45.1064 35.6 45.3902 35.309 45.3902 34.95V11.55C45.3902 11.191 45.1063 10.9 44.7561 10.9H37.1463C34.6928 10.9 34.6928 7 37.1463 7H44.7561C47.2078 7 49.1951 9.03714 49.1951 11.55V34.95C49.1951 35.2217 49.1719 35.4878 49.1273 35.7464C51.3498 36.2991 53 38.3519 53 40.8C53 43.672 50.7288 46 47.9268 46H27C24.5464 46 24.5464 42.1 27 42.1H47.9268C49.5626 42.1 49.5626 39.5 47.9268 39.5H6.07317C4.43744 39.5 4.43744 42.1 6.07317 42.1H14.3171C16.7706 42.1 16.7706 46 14.3171 46H6.07317C3.27137 46 1 43.672 1 40.8C1 38.3519 2.65027 36.2992 4.87265 35.7465C4.82811 35.4878 4.80488 35.2217 4.80488 34.95V11.55C4.80488 9.03708 6.79232 7 9.2439 7H27C29.4536 7 29.4536 10.9 27 10.9H9.2439Z" fill="#3380EF"/>
</svg>
