<svg width="96" height="96" viewBox="0 0 96 96" fill="none" xmlns="http://www.w3.org/2000/svg">
<path fill-rule="evenodd" clip-rule="evenodd" d="M50.3438 25.9667V30.6067H55.0834C58.751 30.6067 58.751 36.1747 55.0834 36.1747H50.3438V40.8148C50.3438 44.4053 44.6563 44.4053 44.6563 40.8148V36.1747H39.9167C36.2491 36.1747 36.2491 30.6067 39.9167 30.6067H44.6563V25.9667C44.6563 22.3761 50.3438 22.3761 50.3438 25.9667ZM32.3333 52.8788H36.125C39.7926 52.8788 39.7926 58.4469 36.125 58.4469H32.3333C28.6658 58.4469 28.6658 52.8788 32.3333 52.8788ZM47.5 52.8788H62.6667C66.3342 52.8788 66.3342 58.4469 62.6667 58.4469H47.5C43.8324 58.4469 43.8324 52.8788 47.5 52.8788ZM36.125 67.727H58.875C62.5426 67.727 62.5426 73.295 58.875 73.295H36.125C32.4574 73.295 32.4574 67.727 36.125 67.727Z" fill="#364F5A"/>
<path d="M66.2863 81.5321C62.8906 81.7696 54.2563 82.0224 45.6744 82.0266C37.5931 82.0305 25.5342 83.5101 18.8964 78.2087C17.3294 76.9572 16 74.9168 16 70.7556C16 66.9678 10 66.9678 10 70.7556C10 76.3844 11.9206 80.218 15.1036 82.7602C23.0943 89.1421 35.9347 87.9052 45.6774 87.9005C54.3116 87.8964 63.1094 87.6432 66.7137 87.3912C76.4918 86.7074 85 81.1572 85 70.7556V40.8963C85 37.1085 79 37.1085 79 40.8963V70.7556C79 78.0199 72.9313 81.0674 66.2863 81.5321Z" fill="#364F5A"/>
<path d="M28.7137 14.456C32.1094 14.2186 40.7437 13.9657 49.3256 13.9616C55.5625 13.9586 62.6595 13.3693 68.7724 14.8653C74.7163 16.32 79 18.5823 79 25.2325C79 29.0203 85 29.0203 85 25.2325C85 15.8346 78.82 11.2696 70.2276 9.1667C63.6155 7.5485 56.0731 8.08436 49.3226 8.0876C40.6884 8.09175 31.8906 8.34494 28.2863 8.59698C18.5082 9.28075 10 14.8309 10 25.2325V55.0918C10 58.8796 16 58.8796 16 55.0918V25.2325C16 17.9682 22.0687 14.9207 28.7137 14.456Z" fill="#364F5A"/>
</svg>
