<svg width="96" height="96" viewBox="0 0 96 96" fill="none" xmlns="http://www.w3.org/2000/svg">
<path d="M66.774 84.3579C65.3687 85.2287 63.6437 86 61.6904 86C56.6541 86 53.6693 81.2801 49.777 78.7259C45.5162 75.93 42.0705 82.1938 38.8949 84.2777C37.516 85.1825 35.7958 86 33.8061 86C30.4055 86 27.7059 83.6396 25.2735 81.4319C22.8425 79.4253 19.387 76.0294 16.3871 79.146C15.0415 80.544 14.3216 83.0087 11.9049 82.0851C10.4094 81.5135 9.63942 79.7802 10.185 78.2136C10.684 76.955 11.4016 75.8203 12.3278 74.858C13.8889 73.2362 16.3789 71.7548 19.9657 71.8876C23.5162 72.0191 26.3334 74.4052 28.8957 76.7291C31.0303 78.6651 33.0235 81.0045 35.8347 79.1598C39.7271 76.6056 42.7119 71.8857 47.7482 71.8857C49.738 71.8857 51.4582 72.7032 52.8372 73.6081C55.4778 75.3408 58.45 79.961 61.6904 79.961C65.0247 79.961 68.1138 75.4958 70.6783 73.7542C71.9725 72.8753 73.601 72.0096 75.4576 71.8913C79.6394 71.6249 83.0629 74.2703 85.4913 77.5654C87.5576 80.7902 82.7974 84.1573 80.7142 80.9456C78.9002 78.5315 76.432 77.0438 73.8141 78.8216C71.3469 80.4972 69.3149 82.7835 66.774 84.3579Z" fill="#364F5A"/>
<path fill-rule="evenodd" clip-rule="evenodd" d="M37.1207 42.4096C37.1207 40.7419 38.4112 39.3901 40.0031 39.3901H55.4944C57.0863 39.3901 58.3768 40.7419 58.3768 42.4096V58.6379C58.3768 60.3056 57.0863 61.6575 55.4944 61.6575H40.0031C38.4112 61.6575 37.1207 60.3056 37.1207 58.6379V42.4096ZM42.8855 45.4291V55.6184H52.612V45.4291H42.8855Z" fill="#364F5A"/>
<path fill-rule="evenodd" clip-rule="evenodd" d="M48.0534 10.003C53.6905 10.128 58.6723 14.1014 63.704 19.9572L76.9928 35.4228C76.9982 35.4289 77.0035 35.4352 77.0088 35.4414L84.7458 44.4458C87.2328 47.3402 82.9482 51.3804 80.4612 48.486L77.7403 45.3193V58.638C77.7403 62.5322 71.9755 62.5322 71.9755 58.638V38.6103L59.4194 23.9975C54.5224 18.2984 50.982 16.1083 47.9314 16.0407C44.9265 15.9741 41.2601 17.9562 36.0691 23.9992L23.5207 38.6074V58.638C23.5207 62.5322 17.756 62.5322 17.756 58.638V45.3184L15.0353 48.4857C12.5487 51.3804 8.26349 47.3409 10.7501 44.4461L18.487 35.4392C18.4924 35.4329 18.4978 35.4266 18.5032 35.4203L31.7839 19.9596C37.1837 13.6735 42.3706 9.8771 48.0534 10.003Z" fill="#364F5A"/>
</svg>
