<svg width="44" height="47" viewBox="0 0 44 47" fill="none" xmlns="http://www.w3.org/2000/svg">
<path fill-rule="evenodd" clip-rule="evenodd" d="M21.4418 0.0931714C21.3972 0.165396 21.3666 0.645992 21.3739 1.16104C21.3845 1.91113 21.4427 2.12735 21.6664 2.24712C21.8525 2.34673 22.0408 2.34568 22.2308 2.24396C22.4714 2.11501 22.5125 1.93234 22.4938 1.07257L22.4717 0.053899L21.9974 0.00785573C21.7364 -0.0175734 21.4864 0.0207962 21.4418 0.0931714ZM23.0195 2.43777C22.9413 2.53347 22.6975 3.2044 22.4776 3.92846C22.2577 4.65266 22.0237 5.24505 21.9575 5.24505C21.8914 5.24505 21.6476 4.6018 21.4156 3.81561C21.0096 2.43942 20.9778 2.38616 20.5619 2.38616C19.9953 2.38616 18.9947 2.90437 18.7778 3.31003C18.529 3.77528 18.7017 4.5371 19.2299 5.30554C19.7735 6.09655 19.8103 6.61086 19.3676 7.23304C19.0248 7.71499 18.0378 8.24554 17.4738 8.25111C17.0826 8.25487 17.0663 8.16865 17.3611 7.65255C17.4793 7.44565 17.5783 7.06121 17.5813 6.79834C17.5873 6.25304 17.1033 5.77937 16.377 5.61972C15.9002 5.51484 15.8924 5.49573 15.9306 4.53033C15.9558 3.89144 15.9552 3.89084 15.4137 3.89084C14.7816 3.89084 14.6015 4.17477 14.8374 4.80012C15.0368 5.32917 14.959 5.42878 14.0902 5.75484C13.6965 5.90275 13.303 6.15704 13.2158 6.3203C13.0386 6.65163 13.1543 7.41451 13.4537 7.88923C13.562 8.06092 13.6738 8.36562 13.702 8.56634C13.752 8.92009 13.7986 8.93288 15.1816 8.97531C18.3159 9.07161 20.037 8.54723 20.6427 7.31144L20.9183 6.74974H21.9656C23.0054 6.74974 23.0147 6.75335 23.2176 7.23876C23.33 7.50765 23.6219 7.87539 23.866 8.0558C24.7753 8.72764 25.3702 8.86306 27.8388 8.96042C30.1548 9.0516 30.2128 9.04648 30.2128 8.74856C30.2128 8.58063 30.3523 8.12743 30.5229 7.74147C30.6935 7.35552 30.8118 6.86274 30.786 6.64621C30.7319 6.19346 30.1962 5.76161 29.5199 5.62544L29.0523 5.53124L28.8734 6.44143C28.7751 6.94204 28.6395 7.35161 28.5723 7.35161C28.5051 7.35161 28.3634 6.94219 28.2573 6.44173L28.0644 5.53185L27.5979 5.6289C27.016 5.75003 26.4677 6.09038 26.347 6.40531C26.2611 6.62906 26.4176 7.38321 26.6758 7.9911C26.9455 8.62547 25.3601 8.1044 24.6489 7.32483C24.0669 6.68684 24.0721 6.15012 24.6684 5.31893C24.9608 4.91132 25.1647 4.41567 25.2118 3.99842C25.2815 3.37834 25.2507 3.30326 24.7811 2.94831C24.1366 2.46124 23.2179 2.19491 23.0195 2.43777ZM33.1439 3.54747C32.6479 3.85142 32.1923 4.17146 32.1316 4.25873C31.9258 4.55456 32.0164 5.16771 32.344 5.69646C32.5667 6.05578 32.6739 6.47935 32.6817 7.03006C32.6922 7.78135 32.6542 7.87057 32.1293 8.32499C31.8194 8.59327 31.5657 8.84742 31.5657 8.8897C31.5657 8.93183 31.8512 8.91407 32.2003 8.85012C32.6353 8.77053 32.9718 8.58048 33.271 8.24539C33.6936 7.77172 33.7039 7.72387 33.5988 6.68895C33.3437 4.17748 33.4092 4.08163 34.8237 4.89356C35.7347 5.41644 35.855 5.53877 35.8981 5.98581C35.9349 6.3671 35.8163 6.67902 35.4096 7.27006C34.6938 8.31054 34.706 8.77218 35.4738 9.70238C35.8045 10.1029 36.075 10.5843 36.075 10.7721C36.075 11.223 36.2829 11.2036 36.6653 10.7168C37.0372 10.2438 37.0588 9.87376 36.7433 9.39151C36.4445 8.93514 36.6201 8.82078 37.5337 8.87706C38.4181 8.93153 38.5072 8.70628 37.8116 8.17512C37.2383 7.73726 37.1367 7.35492 37.5113 7.0439C37.9807 6.65374 38.0545 6.32211 37.794 5.7726C37.5628 5.28493 36.9437 4.94818 36.2729 4.94502C36.175 4.94457 35.7761 4.53785 35.3865 4.04131C34.9967 3.54476 34.6257 3.1385 34.562 3.1385C34.4983 3.1385 34.3561 3.10615 34.246 3.06673C34.1359 3.02715 33.64 3.24353 33.1439 3.54747ZM27.9912 4.28823C28.0378 5.39492 28.3103 5.77696 28.8225 5.4536C29.0216 5.32796 29.0957 5.04508 29.1276 4.28823L29.1698 3.28897H28.5594H27.949L27.9912 4.28823ZM9.43497 4.86196C8.89956 5.55487 8.68837 5.7097 8.08066 5.85565C6.89665 6.13989 6.6127 6.85206 7.31572 7.77458L7.7169 8.30122L7.27814 8.65783C7.03674 8.85389 6.75325 9.08425 6.64803 9.17002C6.31058 9.44493 6.6097 9.60863 7.44935 9.60863C8.32011 9.60863 8.38489 9.66581 8.03632 10.1274C7.79416 10.4478 7.86751 10.8846 8.23307 11.3014C8.53881 11.6499 8.71813 11.6344 8.71813 11.2594C8.71813 11.0913 8.9887 10.6114 9.31938 10.1926C9.65007 9.77385 9.92063 9.27986 9.92063 9.09494C9.92063 8.91001 9.68389 8.4255 9.39454 8.01803C9.0646 7.55354 8.86845 7.10274 8.86845 6.80917C8.86845 6.4002 8.98043 6.272 9.75544 5.79306C10.2432 5.49167 10.7427 5.24505 10.8652 5.24505C11.2013 5.24505 11.285 5.81834 11.098 6.83761C10.8643 8.11132 11.0181 8.79656 11.6198 9.16385C11.884 9.32515 12.3369 9.45621 12.6263 9.45501L13.1524 9.45305L12.6802 9.15031C11.788 8.57808 11.6751 7.65285 12.3235 6.22776C12.5015 5.8367 12.6124 5.42622 12.5702 5.31577C12.4475 4.99603 10.8541 4.04131 10.443 4.04131C10.1682 4.04131 9.90154 4.25843 9.43497 4.86196ZM15.7806 6.18548C15.7792 6.2061 15.6887 6.52298 15.5792 6.88967L15.3801 7.5561L15.2056 7.05519C14.9484 6.31654 14.9859 6.14786 15.407 6.14786C15.6137 6.14786 15.7818 6.16487 15.7806 6.18548ZM1.76933 7.61162C0.423131 9.02437 0.965909 10.7671 3.53235 13.2721C4.51599 14.2322 6.57964 15.9635 7.85399 16.8978C8.41195 17.3067 8.86845 17.6856 8.86845 17.7396C8.86845 17.7937 8.73602 17.9578 8.57413 18.1044C8.29049 18.3614 8.24255 18.3519 7.2589 17.8414C4.92259 16.6292 2.96191 15.2691 1.57422 13.8977C0.277026 12.616 0.125812 12.6464 0.0266056 14.208C-0.02901 15.081 0.00481027 15.2179 0.412909 15.7733C0.658821 16.1083 1.13426 16.5809 1.46946 16.8239C2.6455 17.6769 5.11379 18.7667 7.10227 19.3113C7.57756 19.4414 7.96657 19.5767 7.96657 19.6119C7.96657 19.6471 7.88615 19.8525 7.788 20.0683C7.65723 20.3557 7.5263 20.4411 7.29948 20.3874C7.12903 20.3471 6.58369 20.2671 6.08766 20.2096C5.01428 20.0851 2.15834 19.2464 0.996572 18.7145C0.541726 18.5061 0.131374 18.3358 0.0847768 18.3358C0.0381799 18.3358 0 18.5416 0 18.7932C0 19.3412 0.43756 20.2416 0.925324 20.6969C1.93873 21.6432 4.49615 22.2113 6.86147 22.0153C8.04624 21.9172 8.08968 21.9252 8.19505 22.2576C8.33574 22.7013 8.10711 22.8665 6.76392 23.2909C5.68212 23.6327 5.56052 23.7406 5.92067 24.0397C6.03551 24.1351 6.20551 24.5158 6.29855 24.8857C6.39159 25.2557 6.53935 25.5583 6.62668 25.5583C6.82119 25.5583 8.08832 24.8434 8.46861 24.5191C8.72189 24.3032 8.76323 24.3079 8.95713 24.5733C9.07377 24.733 9.16907 24.9821 9.16907 25.1273C9.16907 25.5413 7.09325 27.3639 6.62172 27.3639C6.53469 27.3639 6.46344 27.5961 6.46344 27.8798C6.46344 28.1635 6.35537 28.5038 6.22339 28.636C6.09127 28.7682 6.02513 28.9853 6.07624 29.1188C6.1523 29.3171 6.32981 29.3466 7.05192 29.281C8.47959 29.1515 9.80038 28.1913 10.6978 26.6305C10.9955 26.1126 11.1028 26.0357 11.4233 26.1108C12.0031 26.2467 12.0725 26.3867 11.8706 27.0115C11.4102 28.4355 10.2857 29.9352 9.28181 30.4641C8.75902 30.7395 8.76022 30.9115 9.28707 31.1841C10.3402 31.7293 11.451 31.6592 12.1032 31.0063C12.7237 30.3851 12.9273 29.8671 13.1224 28.4131L13.3027 27.0693L14.0657 27.4232C15.1195 27.9122 15.3319 28.3996 15.3319 30.3301C15.3319 32.0745 15.1668 32.3721 14.1059 32.5405C11.6313 32.9332 11.3307 35.5119 13.4954 37.7781L14.0288 38.3366L13.5907 38.5113C11.7824 39.2322 11.0947 39.2628 10.521 38.6481C10.2888 38.3992 9.88441 38.1528 9.62226 38.1003C9.18305 38.0124 9.07107 37.8497 8.19835 36.0322C7.67737 34.9473 6.63194 32.7812 5.87512 31.2186C5.11814 29.656 4.51825 28.3662 4.5417 28.3525C4.5653 28.3388 4.77799 28.2443 5.01428 28.1424C5.36631 27.9907 5.42433 27.8968 5.3352 27.623C5.19706 27.1994 5.19766 26.8302 5.337 26.1307C5.47995 25.4143 5.35519 24.9411 4.87178 24.3661C4.36839 23.7671 4.16246 23.7821 3.92662 24.435L3.73452 24.9671L3.21489 24.5103C2.92899 24.2591 2.68022 24.0536 2.66189 24.0536C2.64355 24.0536 2.40425 23.9892 2.13023 23.9105C1.65103 23.773 1.62323 23.7885 1.40422 24.3131C1.27886 24.6132 1.19919 25.1425 1.227 25.4895L1.27766 26.1203L0.695046 25.9146C0.37473 25.8013 0.0871814 25.7087 0.056217 25.7087C0.0252526 25.7087 0.000300295 25.9627 0.00060092 26.273C0.00135248 27.064 0.451389 27.7158 1.27074 28.1129C1.65509 28.2992 2.08093 28.6301 2.21696 28.8481C2.35299 29.0663 2.48557 29.2738 2.51172 29.3093C2.53773 29.3448 2.74892 29.2333 2.98115 29.0615L3.40323 28.7491L3.98599 29.975C4.30646 30.6492 5.37007 32.8501 6.34951 34.8658C8.05375 38.3729 8.12034 38.5459 7.89818 38.8855C7.77041 39.0807 7.66595 39.5002 7.66595 39.818C7.66595 40.2738 7.77041 40.4969 8.16168 40.8765C8.45434 41.1605 8.81328 41.3574 9.0383 41.3574C9.31352 41.3574 9.52065 41.5141 9.78415 41.9217C10.1771 42.5296 10.6109 42.6504 10.8781 42.2264C10.9964 42.0388 10.9946 41.8426 10.8718 41.5166L10.702 41.0663L13.3154 40.2228C16.4194 39.2206 16.5284 39.1326 16.5458 37.613C16.5521 37.0656 16.6422 36.3807 16.746 36.0911C16.9987 35.3855 17.7549 34.8873 18.5731 34.8873C19.1446 34.8873 19.2791 34.9609 19.8085 35.5629C20.3913 36.2256 20.8231 37.2983 20.72 37.8269C20.6877 37.9931 20.3843 38.191 19.9164 38.3511C17.0412 39.3351 15.3319 40.7665 15.3319 42.19C15.3319 42.5884 15.8551 43.6146 16.0582 43.6143C16.1134 43.6142 16.3433 43.2848 16.5693 42.8823C17.0751 41.9807 18.612 40.3874 19.6036 39.7366C20.0102 39.4698 20.3714 39.2801 20.4063 39.315C20.4412 39.3499 20.1052 39.8085 19.6597 40.3341C18.7384 41.4212 17.9661 42.7132 17.8188 43.4137C17.6772 44.0863 17.975 45.048 18.4372 45.412C19.1595 45.9807 19.3186 45.8498 19.5222 44.5191C19.6232 43.8579 19.8295 42.9575 19.9806 42.5182C20.2632 41.6958 20.8526 40.4546 20.9603 40.4546C20.9937 40.4546 20.9826 41.4581 20.9355 42.6847C20.8339 45.3291 20.9023 45.7938 21.4934 46.4803L21.9407 47L22.3867 46.5168C23.1612 45.678 23.2755 44.4846 22.9021 41.1317C22.8269 40.4563 22.842 40.4024 23.0498 40.6051C23.4572 41.0025 24.1707 43.0472 24.3624 44.3668C24.4644 45.0702 24.5899 45.695 24.6411 45.755C24.6923 45.8151 24.9563 45.7288 25.2279 45.5636C25.764 45.2371 26.1544 44.486 26.1544 43.7807C26.1544 43.1315 25.2307 41.462 24.2576 40.3526C23.7924 39.8222 23.4429 39.357 23.4811 39.3189C23.5191 39.2807 23.9502 39.5095 24.439 39.8272C25.4409 40.4786 26.7438 41.8495 27.3234 42.8621C27.5367 43.2345 27.7388 43.5731 27.773 43.6145C27.8069 43.6558 27.9975 43.4866 28.1964 43.2383C28.9949 42.2414 28.4202 40.6749 26.8971 39.6966C26.1132 39.193 25.0857 38.7145 23.787 38.2482C23.3703 38.0986 23.1481 37.9284 23.1481 37.7588C23.1481 37.1689 23.6721 36.0268 24.1957 35.4759C24.675 34.9716 24.8465 34.8873 25.394 34.8873C26.0868 34.8873 26.7809 35.2778 27.0841 35.8383C27.1816 36.0187 27.3052 36.7621 27.3586 37.4904C27.4343 38.5247 27.5209 38.8801 27.7542 39.1135C28.0431 39.4029 29.8431 39.973 33.4446 40.916C36.227 41.6445 37.8654 41.5207 38.8086 40.5108C39.2415 40.0473 39.5707 39.3395 39.4223 39.1912C39.271 39.0395 34.121 39.0876 34.121 39.2408C34.121 39.6826 32.6563 39.3998 30.3018 38.5038L29.9068 38.3535L30.484 37.7757C31.6841 36.5744 32.1986 34.7633 31.6444 33.6906C31.3612 33.1425 30.6008 32.6718 29.7878 32.5417C28.7901 32.382 28.5594 31.9715 28.5594 30.356C28.5594 28.6391 28.831 27.9129 29.6245 27.5077C30.6256 26.9964 30.8141 27.1338 30.8141 28.3744C30.8141 29.9137 31.6787 31.3174 32.737 31.4965C33.4381 31.6151 34.4962 31.3913 34.8804 31.0433C35.1592 30.7907 35.1494 30.7721 34.5313 30.3779C33.6567 29.82 32.8301 28.8624 32.3879 27.8947C31.9291 26.891 31.9287 26.8168 32.3784 26.7038C32.5774 26.6537 32.8326 26.5774 32.9455 26.5339C33.0689 26.4865 33.2627 26.6513 33.4313 26.9471C34.187 28.2721 35.8233 29.3197 37.1379 29.3198C37.8363 29.32 39.3924 28.6653 39.4921 28.3294C39.5188 28.2398 39.116 28.0384 38.597 27.8821C38.078 27.7256 37.3635 27.4364 37.0095 27.2395C36.2985 26.8439 34.7222 25.4609 34.7222 25.233C34.7222 25.1534 34.8387 24.9337 34.9811 24.7447L35.2401 24.401L35.9957 24.8809C37.2593 25.6833 38.1065 25.9343 39.5322 25.9287C40.8936 25.9235 41.4356 25.7402 42.0324 25.0835C42.446 24.6282 42.8391 23.8467 42.8391 23.4794C42.8391 23.1962 42.8217 23.1961 41.8278 23.4719C40.5399 23.8294 39.1178 23.8291 37.7934 23.4708C36.0523 22.9999 35.9297 22.9284 36.0556 22.4573L36.1646 22.0491L38.1115 22.0209C40.7194 21.9833 41.8869 21.6475 43.0404 20.6031C43.5574 20.1349 43.8176 19.6495 43.9532 18.9001C44.0715 18.2458 43.975 18.2111 43.1713 18.6187C41.6886 19.3709 36.7842 20.6073 36.3381 20.3412C36.276 20.3044 36.2253 20.0806 36.2253 19.8441C36.2253 19.4512 36.2888 19.4004 36.9598 19.2564C37.3637 19.1697 38.226 18.8919 38.8763 18.6391C42.5179 17.2235 44.243 15.6993 43.9725 14.1359C43.8854 13.6323 43.5986 12.7685 43.5187 12.7685C43.4991 12.7685 42.9729 13.2712 42.3491 13.8855C41.7253 14.4999 40.9827 15.16 40.6988 15.3526C39.0183 16.492 37.9792 17.143 37.0026 17.6682C35.9319 18.2439 35.8951 18.2523 35.6874 17.9685C35.3561 17.5156 35.4171 17.3869 36.2629 16.753C39.1704 14.5744 41.814 12.0088 42.4519 10.7465C42.8017 10.0546 42.8645 9.76768 42.8102 9.11239C42.7432 8.30287 42.2231 7.35161 41.8475 7.35161C41.7466 7.35161 41.3077 7.80858 40.8724 8.36727C39.1694 10.5519 36.8207 13.2415 34.7951 15.3264C32.0007 18.2026 31.8663 18.376 31.8663 19.1011C31.8663 19.5543 31.9727 19.8042 32.321 20.169C32.9024 20.778 33.0189 21.2445 32.7082 21.7192C32.2945 22.3513 31.6133 22.5999 30.1019 22.6703L28.7133 22.735L29.2442 21.7156C29.5361 21.155 29.7213 20.6494 29.6558 20.5922C29.5901 20.5349 29.0542 20.4055 28.4649 20.3044C26.7717 20.014 26.1649 19.148 26.4756 17.4652C26.6827 16.3443 27.1809 15.3943 27.9721 14.6117C28.8041 13.7888 29.2684 13.792 30.1832 14.6266C30.4781 14.8958 30.55 14.9096 30.6693 14.7206C30.8814 14.3849 30.8436 14.1522 30.525 13.8333C30.2802 13.5882 30.2706 13.5307 30.4622 13.4572C30.878 13.2975 31.5503 13.3679 32.0955 13.6281C32.7246 13.9284 32.9122 13.781 32.9162 12.9827C32.9192 12.3669 32.3683 11.864 31.5736 11.7573C31.0806 11.6911 30.9037 11.5825 30.725 11.2366C30.6007 10.9961 30.3287 10.7346 30.1207 10.6554C29.9127 10.5763 28.4954 10.5114 26.9713 10.5114C23.9284 10.5114 23.8261 10.5476 24.6442 11.3322L25.0881 11.7579L24.4097 12.5265C23.2374 13.8544 22.123 16.667 22.0857 18.3919C22.0707 19.0877 21.8872 18.5561 21.5729 16.9063C21.2704 15.3185 20.4881 13.6853 19.4751 12.5265L18.8032 11.7579L19.2471 11.3322C20.0624 10.5504 19.9561 10.5114 17.0077 10.5114C15.532 10.5114 14.1285 10.5802 13.8887 10.6642C13.6491 10.7483 13.3377 11.0191 13.197 11.266C13.016 11.5834 12.8263 11.7152 12.5507 11.7152C11.6909 11.7152 10.9728 12.3527 10.9728 13.1164C10.9728 13.6972 11.3142 13.8861 11.8565 13.6055C12.3432 13.3535 13.1812 13.2978 13.4942 13.4966C13.6404 13.5894 13.6137 13.6833 13.3814 13.8938C13.0516 14.1925 13.0106 14.3865 13.2104 14.702C13.3118 14.8622 13.4748 14.8066 13.9822 14.4387C14.8592 13.8028 15.2477 13.8347 15.9778 14.603C16.8736 15.5457 17.4878 16.9698 17.5009 18.1349C17.5108 19.0296 17.4808 19.1137 16.9682 19.627C16.5019 20.0937 16.2727 20.1948 15.3523 20.3399C14.0939 20.5382 14.0673 20.6034 14.7321 21.8506L15.1846 22.6994L14.0933 22.6985C12.7838 22.6976 12.0136 22.5036 11.4741 22.0391C10.9043 21.5484 10.9322 20.8796 11.549 20.2425C11.9243 19.8549 12.025 19.622 12.025 19.1413C12.025 18.3066 11.5986 17.7222 9.16907 15.227C7.4507 13.4623 3.8934 9.40941 2.549 7.6849L2.16676 7.19467L1.76933 7.61162ZM27.3569 26.6045C27.3569 31.8141 27.3044 32.2722 26.6924 32.4037C26.5204 32.4405 25.6919 32.4897 24.8509 32.5129C23.4578 32.5513 23.2863 32.5885 22.9197 32.9312C22.6984 33.1381 22.4152 33.5614 22.2903 33.8716C22.0106 34.5671 21.8666 34.5813 21.6531 33.9341C21.5622 33.6581 21.2822 33.2349 21.0307 32.9937C20.5949 32.5754 20.5029 32.5531 19.0427 32.5129C18.2005 32.4897 17.3659 32.4393 17.1883 32.401C16.6032 32.2746 16.5344 31.6543 16.5344 26.5139V21.6461H21.9456H27.3569V26.6045ZM19.8413 23.1848C19.8413 23.6162 19.7416 23.793 19.3152 24.1186C18.3691 24.841 18.788 25.7087 20.0828 25.7087C20.738 25.7087 21.0074 25.9498 21.3447 26.8382C21.5602 27.4056 21.1278 27.3282 20.8915 26.7572C20.7189 26.3404 20.676 26.3186 20.3958 26.5049C20.1288 26.6823 20.0519 26.6719 19.8053 26.4251C19.4665 26.086 19.2764 26.1293 18.9026 26.6305C18.6864 26.9203 18.6326 27.2116 18.6681 27.9L18.7139 28.7933L19.1273 28.3863C19.424 28.0943 19.5406 27.829 19.5406 27.4459C19.5406 26.6984 19.7954 26.7786 19.8775 27.552C19.9206 27.959 19.8718 28.2778 19.743 28.4291C19.6317 28.5597 19.5327 28.8982 19.5229 29.1814C19.5026 29.7652 19.285 30.7284 19.2578 30.354C19.248 30.2193 19.1279 30.0162 18.991 29.9026C18.7638 29.7144 18.7514 29.7493 18.8483 30.298C18.9068 30.6291 19.0941 31.0185 19.2644 31.1632C19.6099 31.4571 20.3107 31.5078 20.7531 31.2708C20.9567 31.1617 21.1379 31.1655 21.3579 31.2833C21.8517 31.5478 23.0216 31.4973 23.1853 31.2041C23.2836 31.0285 23.4419 30.9828 23.7312 31.0463C24.1698 31.1428 25.2525 30.7693 25.2525 30.5218C25.2525 30.4401 25.1172 30.3733 24.9519 30.3733C24.5618 30.3733 24.5692 30.196 24.9696 29.9456C25.3932 29.6808 25.1233 29.368 24.6773 29.6069C24.5085 29.6974 24.337 29.7714 24.2961 29.7714C24.1925 29.7714 23.7165 28.0989 23.797 28.0184C23.833 27.9823 24.1076 27.9131 24.4072 27.8643C24.8925 27.7855 24.9519 27.8114 24.9519 28.1013C24.9519 28.2802 24.8504 28.4656 24.7264 28.5132C24.4365 28.6247 24.4323 29.019 24.7212 29.019C25.0343 29.019 25.2785 28.4859 25.224 27.9212C25.1831 27.4989 25.1168 27.4333 24.6889 27.392C24.3012 27.3546 24.2002 27.2769 24.1997 27.0159C24.1994 26.8348 24.0607 26.4593 23.8913 26.1812C23.4533 25.4621 23.557 25.0876 24.05 25.6079C24.7575 26.3545 24.9914 26.0016 24.6173 24.7518C24.516 24.4131 24.3131 24.016 24.1664 23.8691C23.8877 23.5901 23.212 23.491 23.3736 23.7527C23.4247 23.8354 23.366 23.9031 23.243 23.9031C23.1202 23.9031 22.8568 24.1114 22.6577 24.366L22.2959 24.8288L22.0513 24.4552C21.8403 24.1327 21.8368 24.0698 22.0265 23.997C22.3216 23.8836 22.3073 23.2065 22.0073 23.0912C21.6931 22.9705 21.5073 23.0978 21.3351 23.5516C21.2219 23.8496 21.1267 23.9024 20.8557 23.8177C20.498 23.706 20.2709 23.4576 20.3737 23.2909C20.4076 23.2359 20.3017 23.0698 20.1383 22.9219C19.8477 22.6586 19.8413 22.6643 19.8413 23.1848ZM22.3267 26.2354C22.4094 26.8279 22.3925 26.9506 22.2469 26.8127C22.1451 26.7164 22.0276 26.3102 21.9855 25.9099C21.8825 24.9293 22.1845 25.2175 22.3267 26.2354ZM23.3792 28.5785C23.5002 28.8126 23.5991 29.1873 23.5991 29.411C23.5991 29.7994 23.5862 29.8063 23.3172 29.5627C23.1623 29.4223 22.944 29.3272 22.8323 29.3513C22.719 29.3758 22.6064 29.2455 22.5776 29.0567C22.5406 28.8137 22.601 28.7181 22.7919 28.7181C22.9989 28.7181 23.0178 28.6779 22.8776 28.5375C22.7784 28.4382 22.6972 28.2711 22.6972 28.166C22.6972 27.8505 23.142 28.1194 23.3792 28.5785ZM22.1607 28.7557C22.5352 29.6721 22.5795 29.9219 22.3676 29.9219C22.1746 29.9219 21.3444 29.238 21.3444 29.0789C21.3444 28.9891 21.8472 28.2786 21.9157 28.2714C21.9407 28.2688 22.0509 28.4867 22.1607 28.7557ZM20.9854 28.9542C20.942 29.0673 20.9876 29.21 21.0865 29.2711C21.2027 29.343 21.1338 29.4134 20.892 29.4703C20.6043 29.538 20.5002 29.6784 20.4425 30.077C20.3938 30.4133 20.2748 30.6133 20.1039 30.6461C19.4321 30.7746 19.6173 29.3013 20.3274 28.8692C20.821 28.5687 21.1185 28.6071 20.9854 28.9542ZM36.2253 35.3098C36.2253 35.8338 36.1739 35.9054 35.6232 36.1487C35.0081 36.4203 34.3875 37.1022 34.2035 37.7086C34.1032 38.0389 34.1283 38.0471 35.2382 38.0471H36.3757V36.9939V35.9406H36.9018H37.4278V36.9939V38.0471H38.4763H39.5247L39.369 37.6334C39.1649 37.0915 38.4019 36.308 37.8591 36.0829C37.4892 35.9295 37.4278 35.8211 37.4278 35.3205C37.4278 34.7398 37.4247 34.7368 36.8266 34.7368C36.2305 34.7368 36.2253 34.7417 36.2253 35.3098Z" fill="#F2F4FF"/>
</svg>
