<svg width="96" height="96" viewBox="0 0 96 96" fill="none" xmlns="http://www.w3.org/2000/svg">
<path d="M54.9387 77.4H54.9375V75.1C54.9375 71.2951 51.8256 68.2 48 68.2H20.25C16.4256 68.2 13.3125 71.2951 13.3113 75.1V77.4003C12.035 77.4009 11 78.4303 11 79.7C11 80.9702 12.0354 82 13.3125 82H54.9387C56.2157 82 57.2512 80.9702 57.2512 79.7C57.2512 78.4298 56.2157 77.4 54.9387 77.4ZM20.25 72.8H48C49.2748 72.8 50.3125 73.8321 50.3125 75.1V77.4H17.9363V75.1011C17.9375 73.8321 18.9752 72.8 20.25 72.8Z" fill="#364F5A"/>
<path d="M78.0625 29.1H43.375V24.5H45.6875C46.9646 24.5 48 23.4702 48 22.2V15.3C48 14.0298 46.9646 13 45.6875 13H22.5625C21.2854 13 20.25 14.0298 20.25 15.3V22.2C20.25 23.4702 21.2854 24.5 22.5625 24.5H24.875V47.5001L22.5625 47.5C21.9494 47.5 21.361 47.7426 20.9274 48.1739C20.4938 48.6051 20.25 49.1902 20.25 49.8V56.6988C20.25 57.969 21.2854 59 22.5625 59H45.6875C46.3006 59 46.889 58.7574 47.3226 58.3261C47.7562 57.8949 48 57.3098 48 56.7V49.8011C48 48.531 46.9646 47.5011 45.6875 47.5011L43.375 47.501V42.9H78.0625C81.8881 42.9 85 39.8049 85 36C85 32.1951 81.8881 29.1 78.0625 29.1ZM43.375 54.4H24.875V52.1L43.375 52.1011V54.4ZM24.875 17.6H43.375V19.9H24.875V17.6ZM38.75 24.5V47.5H29.5V24.5H38.75ZM78.0625 38.3H43.375V33.7H78.0625C79.3373 33.7 80.375 34.7321 80.375 36C80.375 37.2679 79.3373 38.3 78.0625 38.3Z" fill="#364F5A"/>
</svg>
