<svg width="54" height="54" viewBox="0 0 54 54" fill="none" xmlns="http://www.w3.org/2000/svg">
<path fill-rule="evenodd" clip-rule="evenodd" d="M27 8.40018C24.108 8.40018 21.5812 10.9556 21.5812 14.3424C21.5812 17.9337 24.7362 20.9085 27 23.3279C29.2638 20.9085 32.4188 17.9337 32.4188 14.3424C32.4188 10.9556 29.892 8.40018 27 8.40018ZM18.2094 14.3424C18.2094 9.28778 22.0441 5 27 5C31.9559 5 35.7906 9.28778 35.7906 14.3424C35.7906 19.136 32.1019 22.8381 29.0569 26.0844C27.4813 27.7641 26.5187 27.7641 24.9431 26.0844C21.8981 22.8381 18.2094 19.136 18.2094 14.3424ZM6.43981 7.56771L11.1763 9.95593C13.121 10.9365 11.6131 13.9777 9.6684 12.9971L7.37173 11.8391V39.0845L18.2094 44.5491V32.9706C18.2094 30.778 21.5812 30.778 21.5812 32.9706V44.5491L32.4188 39.0845V32.9706C32.4188 30.778 35.7906 30.778 35.7906 32.9706V39.0845L46.6283 44.5491V17.3037L42.8237 15.3854C40.879 14.4048 42.3869 11.3636 44.3316 12.3442L49.0681 14.7324C49.6392 15.0204 50 15.609 50 16.253V47.2999C50 48.5412 48.6612 49.3756 47.5602 48.8205L34.1047 42.036L20.6492 48.8205C20.1746 49.0598 19.616 49.0598 19.1413 48.8205L4.93192 41.6558C4.36078 41.3679 4 40.7792 4 40.1352V9.08832C4 7.84698 5.33881 7.01257 6.43981 7.56771ZM25.3141 13.8648C25.3141 12.9258 26.0689 12.1647 27 12.1647H27.0237C27.9548 12.1647 28.7095 12.9258 28.7095 13.8648C28.7095 14.8037 27.9548 15.5649 27.0237 15.5649H27C26.0689 15.5649 25.3141 14.8037 25.3141 13.8648Z" fill="#3380EF"/>
</svg>
