<svg width="96" height="96" viewBox="0 0 96 96" fill="none" xmlns="http://www.w3.org/2000/svg">
<path d="M46.628 31.2668C47.4701 31.7596 48.5176 31.7596 49.3596 31.2668C51.1533 30.2167 60.1006 24.6644 60.1006 18.4194C60.1006 14.3282 56.7826 11 52.7043 11C50.9157 11 49.2734 11.64 47.9934 12.7045C46.7129 11.6403 45.0703 11 43.2815 11C39.2029 11 35.8849 14.3282 35.8849 18.4194C35.8849 24.6647 44.8341 30.2175 46.628 31.2668ZM45.3092 18.4197C45.3092 21.8471 50.6781 21.8471 50.6781 18.4197C50.6781 15.7215 54.7317 15.722 54.7317 18.4197C54.7317 20.4149 51.1603 23.6956 47.9932 25.8284C44.8255 23.6956 41.2535 20.4146 41.2535 18.4197C41.2541 15.7217 45.3092 15.7215 45.3092 18.4197Z" fill="#364F5A"/>
<path d="M87.994 75.5811C87.9146 65.0772 80.8355 56.2053 71.1862 53.3733C75.524 51.0384 78.4759 46.4787 78.4759 41.2473C78.4759 33.6454 72.2435 27.4612 64.5829 27.4612C56.9223 27.4612 50.6895 33.6454 50.6895 41.2473C50.6895 46.4795 53.6428 51.04 57.9819 53.3746C57.2582 53.5877 56.5495 53.8357 55.8561 54.1144C54.1099 51.6688 51.2369 50.068 47.9927 50.068C44.7499 50.068 41.8785 51.6677 40.1317 54.1114C39.4408 53.8336 38.734 53.5866 38.0124 53.3744C42.3515 51.0397 45.3048 46.4795 45.3048 41.247C45.3048 33.6452 39.0723 27.461 31.4114 27.461C23.7508 27.461 17.5184 33.6452 17.5184 41.247C17.5184 46.4781 20.4706 51.0381 24.8083 53.3733C15.1044 56.2213 8 65.1791 8 75.7611C8 77.2289 9.20188 78.4187 10.6844 78.4187H32.9648C32.394 80.5856 31.6357 85 35.1421 85H60.8493C64.3483 85 63.5891 80.5769 63.0211 78.4187H85.3161C86.8498 78.4187 88.0972 77.0925 87.994 75.5811ZM64.5829 32.7761C69.2829 32.7761 73.107 36.5764 73.107 41.2473C73.107 45.9179 69.2829 49.7176 64.5829 49.7176C59.8825 49.7176 56.0584 45.9179 56.0584 41.2473C56.0582 36.5764 59.8823 32.7761 64.5829 32.7761ZM47.9927 55.3831C50.3442 55.3831 52.2578 57.2861 52.2578 59.6253C52.2578 61.9639 50.3442 63.8666 47.9927 63.8666C45.6412 63.8666 43.7285 61.9639 43.7285 59.6253C43.7285 57.2858 45.6412 55.3831 47.9927 55.3831ZM31.4114 32.7761C36.1118 32.7761 39.9359 36.5764 39.9359 41.2473C39.9359 45.9179 36.1118 49.7176 31.4114 49.7176C26.7114 49.7176 22.8873 45.9179 22.8873 41.2473C22.8873 36.5764 26.7114 32.7761 31.4114 32.7761ZM13.5644 73.1036C14.8552 64.4234 22.3669 57.7421 31.4114 57.7421C33.8782 57.7421 36.2295 58.2405 38.372 59.1402C38.1996 62.5701 39.953 65.8987 42.8921 67.7265C39.9329 68.7545 37.3772 70.647 35.5367 73.1036H13.5644ZM38.1788 79.6846C39.3506 75.3657 43.3061 72.1801 47.9927 72.1801C52.6793 72.1801 56.6354 75.3654 57.8071 79.6846H38.1788ZM60.4466 73.1036C58.6063 70.6478 56.0525 68.754 53.0941 67.7263C56.0311 65.8998 57.7874 62.5717 57.614 59.1434C59.7589 58.2415 62.1128 57.7418 64.5826 57.7418C73.6272 57.7418 81.1393 64.4234 82.4301 73.1033L60.4466 73.1036Z" fill="#364F5A"/>
</svg>
