<svg width="96" height="96" viewBox="0 0 96 96" fill="none" xmlns="http://www.w3.org/2000/svg">
<path d="M75.5556 21.2274C63.1246 21.2274 50.1941 11.7773 50.0667 11.6818C49.4704 11.2392 48.7453 11 48 11C47.2547 11 46.5296 11.2392 45.9333 11.6818C45.8059 11.7773 32.8754 21.2274 20.4444 21.2274C19.5309 21.2274 18.6548 21.5866 18.0089 22.226C17.3629 22.8653 17 23.7324 17 24.6366C17 26.6821 17.3444 74.8499 46.791 85.7864C47.569 86.0712 48.4242 86.0712 49.2021 85.7864C78.6556 74.8499 79 26.6821 79 24.6366C79 23.7324 78.6371 22.8653 77.9911 22.226C77.3452 21.5866 76.4691 21.2274 75.5556 21.2274ZM48 78.917C28.0222 70.3191 24.595 38.1811 24.0094 27.8514C32.6054 26.5573 40.8014 23.3812 48 18.5547C55.1986 23.3812 63.3946 26.5573 71.9906 27.8514C71.4222 38.1811 67.9778 70.3191 48 78.917ZM34.2222 45.0915C34.2222 47.7885 35.0303 50.425 36.5442 52.6675C38.0581 54.9101 40.2099 56.6579 42.7275 57.69C45.245 58.7221 48.0153 58.9922 50.6879 58.466C53.3605 57.9398 55.8155 56.6411 57.7424 54.734C59.6692 52.8269 60.9814 50.3971 61.513 47.7518C62.0447 45.1066 61.7718 42.3647 60.729 39.873C59.6862 37.3812 57.9203 35.2515 55.6545 33.753C53.3888 32.2546 50.725 31.4549 48 31.4549C44.3459 31.4549 40.8415 32.8916 38.2576 35.4489C35.6738 38.0063 34.2222 41.4748 34.2222 45.0915ZM54.8889 45.0915C54.8889 46.44 54.4849 47.7582 53.7279 48.8795C52.9709 50.0008 51.895 50.8747 50.6363 51.3907C49.3775 51.9068 47.9924 52.0418 46.656 51.7787C45.3197 51.5156 44.0922 50.8663 43.1288 49.9127C42.1654 48.9592 41.5093 47.7443 41.2435 46.4216C40.9777 45.099 41.1141 43.7281 41.6355 42.4822C42.1569 41.2363 43.0399 40.1715 44.1727 39.4223C45.3056 38.673 46.6375 38.2732 48 38.2732C49.827 38.2732 51.5793 38.9915 52.8712 40.2702C54.1631 41.5489 54.8889 43.2831 54.8889 45.0915Z" fill="#364F5A"/>
</svg>
