<svg width="54" height="54" viewBox="0 0 54 54" fill="none" xmlns="http://www.w3.org/2000/svg">
<path fill-rule="evenodd" clip-rule="evenodd" d="M3 26.5C3 13.5213 13.5213 3 26.5 3C39.4788 3 50 13.5213 50 26.5C50 39.4788 39.4788 50 26.5 50C13.5213 50 3 39.4788 3 26.5ZM26.5 6.61538C15.518 6.61538 6.61538 15.518 6.61538 26.5C6.61538 37.4821 15.518 46.3846 26.5 46.3846C37.4821 46.3846 46.3846 37.4821 46.3846 26.5C46.3846 15.518 37.4821 6.61538 26.5 6.61538Z" fill="#3380EF"/>
<path fill-rule="evenodd" clip-rule="evenodd" d="M28.3077 12.0385V25.7512L37.9977 35.4413C39.6462 37.0898 37.0898 39.6462 35.4413 37.9977L25.2218 27.7782C24.8828 27.4392 24.6923 26.9794 24.6923 26.5V12.0385C24.6923 9.70709 28.3077 9.70709 28.3077 12.0385Z" fill="#3380EF"/>
</svg>
